<mxfile host="app.diagrams.net" agent="Mozilla/5.0 (Windows NT 10.0; Win64; x64) AppleWebKit/537.36 (KHTML, like Gecko) Chrome/138.0.0.0 Safari/537.36" version="28.0.7">
  <diagram name="Page-1" id="q_vuOTQ3eI0zSNSS1enW">
    <mxGraphModel dx="4270" dy="2680" grid="1" gridSize="10" guides="1" tooltips="1" connect="1" arrows="1" fold="1" page="1" pageScale="1" pageWidth="1169" pageHeight="827" background="#ffffff" math="0" shadow="0">
      <root>
        <mxCell id="0" />
        <mxCell id="1" parent="0" />
        <mxCell id="lQvHEniQ6UZ-l9RBs4Xi-1" value="" style="rounded=0;whiteSpace=wrap;html=1;fillColor=light-dark(#FFFFFF,#FFFFFF);" vertex="1" parent="1">
          <mxGeometry x="80" y="30" width="1060" height="2290" as="geometry" />
        </mxCell>
        <mxCell id="lQvHEniQ6UZ-l9RBs4Xi-2" value="&lt;font style=&quot;font-size: 30px;&quot;&gt;&lt;b&gt;CERTEZAS&lt;/b&gt;&lt;/font&gt;" style="rounded=0;whiteSpace=wrap;html=1;fillColor=light-dark(#D80073,#99FF99);fontColor=#ffffff;strokeColor=light-dark(#A50040,#000000);" vertex="1" parent="1">
          <mxGeometry x="90" y="50" width="320" height="60" as="geometry" />
        </mxCell>
        <mxCell id="lQvHEniQ6UZ-l9RBs4Xi-3" value="&lt;font style=&quot;font-size: 30px;&quot;&gt;&lt;b&gt;SUPOSIÇÕES&lt;/b&gt;&lt;/font&gt;" style="rounded=0;whiteSpace=wrap;html=1;fillColor=light-dark(#1BA1E2,#99CCFF);fontColor=#ffffff;strokeColor=light-dark(#006EAF,#000000);" vertex="1" parent="1">
          <mxGeometry x="460" y="50" width="320" height="60" as="geometry" />
        </mxCell>
        <mxCell id="lQvHEniQ6UZ-l9RBs4Xi-5" value="&lt;font style=&quot;font-size: 30px; color: light-dark(rgb(0, 0, 0), rgb(0, 0, 0));&quot;&gt;&lt;b&gt;DÚVIDAS&lt;/b&gt;&lt;/font&gt;" style="rounded=0;whiteSpace=wrap;html=1;fillColor=light-dark(#FFFFFF,#FF99CC);strokeColor=light-dark(#000000,#000000);" vertex="1" parent="1">
          <mxGeometry x="810" y="50" width="320" height="60" as="geometry" />
        </mxCell>
        <mxCell id="lQvHEniQ6UZ-l9RBs4Xi-6" value="" style="endArrow=none;html=1;rounded=0;entryX=0.995;entryY=0.124;entryDx=0;entryDy=0;entryPerimeter=0;strokeColor=light-dark(#000000,#000000);strokeWidth=7;exitX=-0.002;exitY=0.048;exitDx=0;exitDy=0;exitPerimeter=0;" edge="1" parent="1" source="lQvHEniQ6UZ-l9RBs4Xi-1">
          <mxGeometry width="50" height="50" relative="1" as="geometry">
            <mxPoint x="100" y="150" as="sourcePoint" />
            <mxPoint x="1140.0000000000002" y="140.20000000000005" as="targetPoint" />
            <Array as="points">
              <mxPoint x="145.3" y="140" />
              <mxPoint x="675.3" y="140" />
            </Array>
          </mxGeometry>
        </mxCell>
        <mxCell id="lQvHEniQ6UZ-l9RBs4Xi-7" value="" style="endArrow=none;dashed=1;html=1;rounded=0;strokeColor=light-dark(#000000,#000000);strokeWidth=4;" edge="1" parent="1">
          <mxGeometry width="50" height="50" relative="1" as="geometry">
            <mxPoint x="440" y="2360" as="sourcePoint" />
            <mxPoint x="440" y="140" as="targetPoint" />
          </mxGeometry>
        </mxCell>
        <mxCell id="lQvHEniQ6UZ-l9RBs4Xi-8" value="" style="endArrow=none;dashed=1;html=1;rounded=0;strokeColor=light-dark(#000000,#000000);strokeWidth=4;" edge="1" parent="1">
          <mxGeometry width="50" height="50" relative="1" as="geometry">
            <mxPoint x="800" y="2420" as="sourcePoint" />
            <mxPoint x="800" y="140" as="targetPoint" />
          </mxGeometry>
        </mxCell>
        <mxCell id="lQvHEniQ6UZ-l9RBs4Xi-9" value="As concessionárias de energia estão perdendo muito dinheiro devido aos problemas de qualidade de energia elétrica" style="whiteSpace=wrap;html=1;aspect=fixed;" vertex="1" parent="1">
          <mxGeometry x="130" y="200" width="150" height="150" as="geometry" />
        </mxCell>
        <mxCell id="lQvHEniQ6UZ-l9RBs4Xi-10" value="O monitoramento de qualidade de energia da rede de baixa tensão é feito através de medidores portáteis e caros" style="whiteSpace=wrap;html=1;aspect=fixed;" vertex="1" parent="1">
          <mxGeometry x="190" y="400" width="150" height="150" as="geometry" />
        </mxCell>
        <mxCell id="lQvHEniQ6UZ-l9RBs4Xi-11" value="As concessionárias têm interesse em melhorar seus indicadores DEC e FEC, além de outros relacionados à qualidade de energia" style="whiteSpace=wrap;html=1;aspect=fixed;" vertex="1" parent="1">
          <mxGeometry x="130" y="600" width="150" height="150" as="geometry" />
        </mxCell>
        <mxCell id="lQvHEniQ6UZ-l9RBs4Xi-12" value="Há concorrentes diretos" style="whiteSpace=wrap;html=1;aspect=fixed;" vertex="1" parent="1">
          <mxGeometry x="200" y="800" width="150" height="150" as="geometry" />
        </mxCell>
        <mxCell id="lQvHEniQ6UZ-l9RBs4Xi-13" value="Digitalização das redes é uma das prioridades das concessionárias" style="whiteSpace=wrap;html=1;aspect=fixed;" vertex="1" parent="1">
          <mxGeometry x="510" y="200" width="150" height="150" as="geometry" />
        </mxCell>
        <mxCell id="lQvHEniQ6UZ-l9RBs4Xi-14" value="Não há monitoramento em grande escala da rede elétrica de baixa tensão" style="whiteSpace=wrap;html=1;aspect=fixed;" vertex="1" parent="1">
          <mxGeometry x="600" y="420" width="150" height="150" as="geometry" />
        </mxCell>
        <mxCell id="lQvHEniQ6UZ-l9RBs4Xi-15" value="É um investimento alto, logo, uma decisão difícil de ser tomada por parte da concessionária" style="whiteSpace=wrap;html=1;aspect=fixed;" vertex="1" parent="1">
          <mxGeometry x="130" y="990" width="150" height="150" as="geometry" />
        </mxCell>
        <mxCell id="lQvHEniQ6UZ-l9RBs4Xi-16" value="Há muito incentivo governamental para a inovação e digitalização das redes elétricas" style="whiteSpace=wrap;html=1;aspect=fixed;" vertex="1" parent="1">
          <mxGeometry x="220" y="1190" width="150" height="150" as="geometry" />
        </mxCell>
        <mxCell id="lQvHEniQ6UZ-l9RBs4Xi-17" value="As concessionárias estão mais interessadas em um sensor inteligente para a rede de abixa tensão ou para substiuir os medidores de potências utilizados nas residências?" style="whiteSpace=wrap;html=1;aspect=fixed;" vertex="1" parent="1">
          <mxGeometry x="895" y="200" width="150" height="150" as="geometry" />
        </mxCell>
        <mxCell id="lQvHEniQ6UZ-l9RBs4Xi-18" value="As concessionárias estariam abertas a soluções que monitoram a qualidade de energia ou estão muito mais preocupadas com evitar perdas não técnicas?" style="whiteSpace=wrap;html=1;aspect=fixed;" vertex="1" parent="1">
          <mxGeometry x="850" y="413" width="150" height="150" as="geometry" />
        </mxCell>
        <mxCell id="lQvHEniQ6UZ-l9RBs4Xi-19" value="Por que os qualímetor fixos ainda não se popularizaram?" style="whiteSpace=wrap;html=1;aspect=fixed;" vertex="1" parent="1">
          <mxGeometry x="950" y="630" width="150" height="150" as="geometry" />
        </mxCell>
        <mxCell id="lQvHEniQ6UZ-l9RBs4Xi-20" value="As concessionárias possuem interesse em monitoramento contínuo e em tempo real na baixa tensão, ou preferem medições pontuais e amostrais?" style="whiteSpace=wrap;html=1;aspect=fixed;" vertex="1" parent="1">
          <mxGeometry x="850" y="850" width="150" height="150" as="geometry" />
        </mxCell>
        <mxCell id="lQvHEniQ6UZ-l9RBs4Xi-21" value="As concessionárias devem respeitar limites de variação dos parâmetros de qualidade de enegia" style="whiteSpace=wrap;html=1;aspect=fixed;" vertex="1" parent="1">
          <mxGeometry x="120" y="1390" width="150" height="150" as="geometry" />
        </mxCell>
        <mxCell id="lQvHEniQ6UZ-l9RBs4Xi-22" value="Há um grande interesse em manutenção preditiva" style="whiteSpace=wrap;html=1;aspect=fixed;" vertex="1" parent="1">
          <mxGeometry x="500" y="610" width="150" height="150" as="geometry" />
        </mxCell>
        <mxCell id="lQvHEniQ6UZ-l9RBs4Xi-23" value="As concessionárias têm uma visão muito limitada do que ocorre na rede de baixa tensão, embora estejam mais maduras em relação à média e alta tensão" style="whiteSpace=wrap;html=1;aspect=fixed;" vertex="1" parent="1">
          <mxGeometry x="210" y="1570" width="150" height="150" as="geometry" />
        </mxCell>
        <mxCell id="lQvHEniQ6UZ-l9RBs4Xi-24" value="Com o crescimento da geração distribuída e veículos elétricos, juntamente com os postos de carregamento, têm piorado a qualidade da energia elétrica" style="whiteSpace=wrap;html=1;aspect=fixed;" vertex="1" parent="1">
          <mxGeometry x="130" y="1770" width="150" height="150" as="geometry" />
        </mxCell>
        <mxCell id="lQvHEniQ6UZ-l9RBs4Xi-25" value="A geração distribuída, veículos elétricos e postos de carregamento de baterias tendem a crescer" style="whiteSpace=wrap;html=1;aspect=fixed;" vertex="1" parent="1">
          <mxGeometry x="570" y="840" width="150" height="150" as="geometry" />
        </mxCell>
        <mxCell id="lQvHEniQ6UZ-l9RBs4Xi-26" value="Anuelamente a ANEEL faz um ranking das concessionárias e a qualidade de energia é um dos critérios utilizados" style="whiteSpace=wrap;html=1;aspect=fixed;" vertex="1" parent="1">
          <mxGeometry x="220" y="1980" width="150" height="150" as="geometry" />
        </mxCell>
        <mxCell id="lQvHEniQ6UZ-l9RBs4Xi-27" value="Os maiores problemas de qualidade de energia vêm da rede elétrica de baixa tensão" style="whiteSpace=wrap;html=1;aspect=fixed;" vertex="1" parent="1">
          <mxGeometry x="510" y="1050" width="150" height="150" as="geometry" />
        </mxCell>
        <mxCell id="lQvHEniQ6UZ-l9RBs4Xi-28" value="Os maiores problemas de qualidade de energia vêm da rede elétrica de baixa tensão" style="whiteSpace=wrap;html=1;aspect=fixed;" vertex="1" parent="1">
          <mxGeometry x="600" y="1250" width="150" height="150" as="geometry" />
        </mxCell>
        <mxCell id="lQvHEniQ6UZ-l9RBs4Xi-29" value="Monitorar a qualidade de energia da rede de baixa tensão ajudaria muito a reduzir os indicares DEF e FEC e outros de qualidade de energia aponto de justificar o investimento" style="whiteSpace=wrap;html=1;aspect=fixed;" vertex="1" parent="1">
          <mxGeometry x="510" y="1460" width="150" height="150" as="geometry" />
        </mxCell>
        <mxCell id="lQvHEniQ6UZ-l9RBs4Xi-30" value="" style="whiteSpace=wrap;html=1;aspect=fixed;" vertex="1" parent="1">
          <mxGeometry x="600" y="1670" width="150" height="150" as="geometry" />
        </mxCell>
        <mxCell id="lQvHEniQ6UZ-l9RBs4Xi-31" value="Os distúrbios de qualidade de energia devem ser medidos no lado de baixa tensão ou são suficientes os dados advindos do monitoramento da média tensão?" style="whiteSpace=wrap;html=1;aspect=fixed;" vertex="1" parent="1">
          <mxGeometry x="910" y="1080" width="150" height="150" as="geometry" />
        </mxCell>
        <mxCell id="lQvHEniQ6UZ-l9RBs4Xi-32" value="" style="whiteSpace=wrap;html=1;aspect=fixed;" vertex="1" parent="1">
          <mxGeometry x="880" y="1290" width="150" height="150" as="geometry" />
        </mxCell>
        <mxCell id="lQvHEniQ6UZ-l9RBs4Xi-33" value="" style="whiteSpace=wrap;html=1;aspect=fixed;" vertex="1" parent="1">
          <mxGeometry x="950" y="1504" width="150" height="150" as="geometry" />
        </mxCell>
        <mxCell id="lQvHEniQ6UZ-l9RBs4Xi-34" value="" style="whiteSpace=wrap;html=1;aspect=fixed;" vertex="1" parent="1">
          <mxGeometry x="880" y="1740" width="150" height="150" as="geometry" />
        </mxCell>
      </root>
    </mxGraphModel>
  </diagram>
</mxfile>
